<svg xmlns="http://www.w3.org/2000/svg" viewBox="0 0 563.27 568.03"><title>Asset 1</title><g id="Layer_2" data-name="Layer 2"><g id="Capa_1" data-name="Capa 1"><path d="M548.61,0H14.67A14.67,14.67,0,0,0,0,14.67V553.36A14.67,14.67,0,0,0,14.67,568h177.5v-.13c8-.09,14.15-4.57,14.43-12.16.73-19.73.21-39.49.21-58.56-14.29.66-27.94,2.47-41.44,1.69-29.76-1.71-52.63-14.41-64.49-43.55-7-17.27-17.61-32-34.1-41.89a34.4,34.4,0,0,1-8.13-7.31c-3.07-3.59-2.5-7.28,2.37-8.27s10.27-1.69,15.11-.79c19,3.57,32.15,15.49,42.21,31.35,19.9,31.37,50.52,41,85,26.49,1.92-.81,4.36-2.77,4.72-4.56,2.78-13.88,8-26.54,18.43-37.65-11.63-2.15-22.4-3.73-33-6.18-30.42-7-57.74-19.7-77.73-44.85C99.48,341.14,92,317.13,88.6,291.57c-5.37-40-.56-77.5,26.93-109.49a8.6,8.6,0,0,0,1.52-6.94c-6.88-22.5-5.83-44.81,1-67,3.58-11.68,4.58-12.27,16.5-10.64.73.1,1.44.28,2.16.41,23.9,4,44.47,15.52,64.73,28,2.73,1.67,6.88,2.71,9.87,2a303.13,303.13,0,0,1,145.09,0c2.81.68,6.56-.29,9.25-1.69,11-5.76,21.56-12.46,32.72-17.92,13-6.34,26.65-11.12,41.37-10.85,2.57,0,6.56,2.5,7.42,4.78,8.86,23.47,10.72,47.38,3.67,71.8-.76,2.6.36,6.32,1.77,8.89,7,12.78,16.69,24.57,21.09,38.12,13.44,41.32,8.54,82.23-9.75,121.06-16.75,35.6-47.83,53.63-84.62,62.94-12.42,3.14-25.15,5.05-38.55,7.68,17.56,18.35,20.31,40.74,20,64.19-.32,24.19-.23,48.39-.25,72.59,0,11.72,5.11,18.19,14,18.57,0,0,188.72,0,188.72,0V14.67A14.66,14.66,0,0,0,548.61,0Z"/></g></g></svg>