<?xml version="1.0" encoding="utf-8"?>
<!-- Generator: Adobe Illustrator 23.0.0, SVG Export Plug-In . SVG Version: 6.00 Build 0)  -->
<svg version="1.1" id="Layer_1" xmlns="http://www.w3.org/2000/svg" xmlns:xlink="http://www.w3.org/1999/xlink" x="0px" y="0px"
	 viewBox="0 0 48 48" style="enable-background:new 0 0 48 48;" xml:space="preserve">
<style type="text/css">
	.st0{fill:#0097D3;}
</style>
<g id="Icons">
	<g id="Icons_22_">
		<g>
			<path class="st0" d="M43.5,0h-39C2,0,0,2,0,4.5v39C0,46,2,48,4.5,48h39c2.5,0,4.5-2,4.5-4.5v-39C48,2,46,0,43.5,0z M15.8,37.1
				c-1.7,0-3.4,0-5.1,0c-0.3,0-0.4-0.1-0.4-0.4V18.6c0-0.3,0.1-0.4,0.4-0.4c1.7,0,3.4,0,5.1,0c0.3,0,0.4,0.1,0.4,0.4v9c0,3,0,6,0,9
				C16.3,37,16.2,37.1,15.8,37.1z M13.3,15.7c-1.9,0-3.4-1.6-3.4-3.4c0-1.8,1.4-3.4,3.4-3.4c1.9,0,3.5,1.4,3.5,3.4
				C16.7,14.2,15.2,15.7,13.3,15.7z M37.6,37.1h-5c-0.4,0-0.4,0-0.4-0.4v-9.2c0-0.9,0-1.7-0.3-2.5c-0.4-1.3-1.2-1.9-2.6-2
				c-1,0-1.9,0.2-2.5,0.9c-0.6,0.6-0.8,1.3-0.9,2.1c-0.1,0.7-0.1,1.4-0.1,2.1c0,2.9,0,5.7,0,8.6c0,0.3-0.1,0.4-0.4,0.4
				c-1.7,0-3.4,0-5.1,0c-0.3,0-0.4-0.1-0.4-0.4c0-6,0-12.1,0-18.1c0-0.3,0.1-0.4,0.4-0.4c1.6,0,3.3,0,4.9,0c0.3,0,0.4,0.1,0.4,0.4
				c0,0.7,0,1.3,0,2c0.9-1.4,2.2-2.2,3.7-2.6c1.8-0.4,3.6-0.3,5.3,0.4c1.7,0.7,2.5,2.1,3,3.7c0.3,1.1,0.5,2.2,0.5,3.3
				c0,3.7,0,7.4,0.1,11.1C38.2,37.1,38.2,37.1,37.6,37.1z"/>
		</g>
	</g>
</g>
</svg>
